<svg xmlns="http://www.w3.org/2000/svg" xmlns:xlink="http://www.w3.org/1999/xlink" width="500" zoomAndPan="magnify" viewBox="0 0 375 374.999991" height="500" preserveAspectRatio="xMidYMid meet" version="1.0"><defs><g/><clipPath id="19e983f8ec"><path d="M 94.347656 74.011719 L 254.097656 74.011719 L 254.097656 270.957031 L 94.347656 270.957031 Z M 94.347656 74.011719 " clip-rule="nonzero"/></clipPath><clipPath id="443da53f64"><path d="M 147.714844 78.632812 C 155.890625 75.84375 165.246094 74.011719 174.398438 74.011719 C 183.554688 74.011719 192.363281 75.582031 200.480469 78.371094 C 200.652344 78.457031 200.824219 78.457031 200.996094 78.546875 C 231.480469 89.707031 253.933594 119.171875 254.363281 153.609375 L 254.363281 270.957031 L 94.347656 270.957031 L 94.347656 153.695312 C 94.777344 119 116.886719 89.53125 147.714844 78.632812 Z M 147.714844 78.632812 " clip-rule="nonzero"/></clipPath></defs><g clip-path="url(#19e983f8ec)"><g clip-path="url(#443da53f64)"><path stroke-linecap="butt" transform="matrix(0.75, 0, 0, 0.75, 94.346936, 74.012333)" fill="none" stroke-linejoin="miter" d="M 71.157215 6.16064 C 82.058258 2.44189 94.532217 -0.000818653 106.735342 -0.000818653 C 118.943677 -0.000818653 130.688469 2.092931 141.511386 5.811682 C 141.740553 5.926265 141.96972 5.926265 142.198886 6.046057 C 182.844722 20.926266 212.782224 60.212727 213.355141 106.129397 L 213.355141 262.592949 L 0.000960461 262.592949 L 0.000960461 106.24398 C 0.573877 59.98356 30.053046 20.691891 71.157215 6.16064 Z M 71.157215 6.16064 " stroke="#000000" stroke-width="6" stroke-opacity="1" stroke-miterlimit="4"/></g></g><path stroke-linecap="butt" transform="matrix(0, -0.75, 0.75, 0, 250.994021, 246.891723)" fill="none" stroke-linejoin="miter" d="M 0.00146398 2.497556 L 123.709805 2.497556 " stroke="#ffffff" stroke-width="5" stroke-opacity="1" stroke-miterlimit="4"/><g fill="#000000" fill-opacity="1"><g transform="translate(120.592584, 188.310926)"><g><path d="M 18.359375 -3.046875 C 19.960938 -3.742188 21.21875 -4.789062 22.125 -6.1875 C 23.039062 -7.582031 23.5 -9.128906 23.5 -10.828125 C 23.5 -12.523438 23.273438 -13.921875 22.828125 -15.015625 C 22.378906 -16.109375 21.765625 -17.003906 20.984375 -17.703125 C 20.203125 -18.410156 19.226562 -18.988281 18.0625 -19.4375 C 15.9375 -20.25 13.164062 -20.65625 9.75 -20.65625 C 8.207031 -20.65625 7.4375 -20.53125 7.4375 -20.28125 L 7.4375 -2.28125 C 9.132812 -2.101562 10.976562 -2.015625 12.96875 -2.015625 C 14.96875 -2.015625 16.765625 -2.359375 18.359375 -3.046875 Z M 23.71875 -19.078125 C 24.75 -18.285156 25.566406 -17.289062 26.171875 -16.09375 C 26.785156 -14.894531 27.09375 -13.539062 27.09375 -12.03125 C 27.09375 -10.519531 26.859375 -9.109375 26.390625 -7.796875 C 25.921875 -6.492188 25.269531 -5.367188 24.4375 -4.421875 C 23.601562 -3.472656 22.613281 -2.664062 21.46875 -2 C 19.175781 -0.65625 16.460938 0.015625 13.328125 0.015625 C 12.222656 -0.00390625 10.296875 -0.015625 7.546875 -0.015625 C 4.796875 -0.015625 3.210938 -0.0546875 2.796875 -0.140625 C 1.972656 -0.359375 1.546875 -0.800781 1.515625 -1.46875 C 1.515625 -1.84375 1.878906 -2.078125 2.609375 -2.171875 C 2.953125 -2.210938 3.179688 -2.265625 3.296875 -2.328125 C 3.722656 -2.492188 3.9375 -2.878906 3.9375 -3.484375 L 3.9375 -19.171875 C 3.9375 -19.992188 3.53125 -20.4375 2.71875 -20.5 C 2.039062 -20.550781 1.671875 -20.648438 1.609375 -20.796875 C 1.546875 -20.953125 1.515625 -21.148438 1.515625 -21.390625 C 1.515625 -21.640625 1.59375 -21.863281 1.75 -22.0625 C 1.914062 -22.257812 2.207031 -22.398438 2.625 -22.484375 C 3.164062 -22.578125 4.175781 -22.625 5.65625 -22.625 L 10.640625 -22.625 C 16.316406 -22.625 20.675781 -21.441406 23.71875 -19.078125 Z M 23.71875 -19.078125 "/></g></g><g transform="translate(148.533012, 188.310926)"><g><path d="M 8.609375 0.40625 C 6.179688 0.40625 4.222656 -0.359375 2.734375 -1.890625 C 1.253906 -3.421875 0.515625 -5.363281 0.515625 -7.71875 C 0.515625 -9.289062 0.90625 -10.6875 1.6875 -11.90625 C 2.476562 -13.132812 3.539062 -14.070312 4.875 -14.71875 C 6.207031 -15.363281 7.695312 -15.6875 9.34375 -15.6875 C 11.707031 -15.6875 13.65625 -14.953125 15.1875 -13.484375 C 16.726562 -12.015625 17.5 -10.113281 17.5 -7.78125 C 17.5 -6.164062 17.101562 -4.734375 16.3125 -3.484375 C 15.519531 -2.234375 14.453125 -1.269531 13.109375 -0.59375 C 11.773438 0.0703125 10.273438 0.40625 8.609375 0.40625 Z M 9.265625 -1.390625 C 10.867188 -1.390625 12.117188 -1.929688 13.015625 -3.015625 C 13.910156 -4.097656 14.359375 -5.539062 14.359375 -7.34375 C 14.359375 -9.15625 13.84375 -10.710938 12.8125 -12.015625 C 11.78125 -13.328125 10.453125 -13.984375 8.828125 -13.984375 C 7.210938 -13.984375 5.96875 -13.429688 5.09375 -12.328125 C 4.226562 -11.222656 3.796875 -9.769531 3.796875 -7.96875 C 3.796875 -6.175781 4.304688 -4.628906 5.328125 -3.328125 C 6.347656 -2.035156 7.660156 -1.390625 9.265625 -1.390625 Z M 9.265625 -1.390625 "/></g></g><g transform="translate(166.595999, 188.310926)"><g><path d="M 5.578125 0 L 4.1875 0.015625 C 2.78125 0.015625 1.910156 -0.195312 1.578125 -0.625 C 1.429688 -0.820312 1.359375 -1.054688 1.359375 -1.328125 C 1.359375 -1.597656 1.460938 -1.785156 1.671875 -1.890625 C 1.890625 -2.003906 2.128906 -2.066406 2.390625 -2.078125 C 2.648438 -2.085938 2.890625 -2.171875 3.109375 -2.328125 C 3.328125 -2.484375 3.4375 -2.734375 3.4375 -3.078125 L 3.4375 -12.28125 C 3.4375 -12.601562 3.3125 -12.84375 3.0625 -13 C 2.820312 -13.164062 2.5625 -13.257812 2.28125 -13.28125 C 1.507812 -13.320312 1.125 -13.5625 1.125 -14 C 1.125 -14.707031 1.832031 -15.1875 3.25 -15.4375 C 3.570312 -15.5 3.875 -15.53125 4.15625 -15.53125 C 5.082031 -15.53125 5.675781 -15.394531 5.9375 -15.125 C 6.207031 -14.851562 6.34375 -14.242188 6.34375 -13.296875 C 7.832031 -14.953125 9.84375 -15.78125 12.375 -15.78125 C 13.257812 -15.78125 14.113281 -15.515625 14.9375 -14.984375 C 15.769531 -14.453125 16.421875 -13.828125 16.890625 -13.109375 C 18.710938 -14.898438 20.742188 -15.796875 22.984375 -15.796875 C 25.566406 -15.796875 27.210938 -14.6875 27.921875 -12.46875 C 28.304688 -11.269531 28.5 -9.644531 28.5 -7.59375 L 28.5 -3.078125 C 28.5 -2.453125 28.84375 -2.117188 29.53125 -2.078125 C 30.226562 -2.046875 30.578125 -1.769531 30.578125 -1.25 C 30.578125 -0.664062 30.253906 -0.300781 29.609375 -0.15625 C 29.117188 -0.0507812 28.445312 0 27.59375 0 L 26.203125 0.015625 C 24.796875 0.015625 23.925781 -0.195312 23.59375 -0.625 C 23.4375 -0.820312 23.359375 -1.054688 23.359375 -1.328125 C 23.359375 -1.597656 23.46875 -1.785156 23.6875 -1.890625 C 23.90625 -2.003906 24.144531 -2.066406 24.40625 -2.078125 C 24.664062 -2.085938 24.898438 -2.171875 25.109375 -2.328125 C 25.328125 -2.484375 25.4375 -2.734375 25.4375 -3.078125 L 25.4375 -8.046875 C 25.4375 -10.492188 25.164062 -12.054688 24.625 -12.734375 C 24.101562 -13.390625 23.363281 -13.71875 22.40625 -13.71875 C 21.457031 -13.71875 20.628906 -13.585938 19.921875 -13.328125 C 19.222656 -13.078125 18.644531 -12.6875 18.1875 -12.15625 C 17.738281 -11.625 17.515625 -11 17.515625 -10.28125 L 17.515625 -3.078125 C 17.515625 -2.453125 17.859375 -2.117188 18.546875 -2.078125 C 19.242188 -2.046875 19.59375 -1.769531 19.59375 -1.25 C 19.59375 -0.664062 19.269531 -0.300781 18.625 -0.15625 C 18.132812 -0.0507812 17.457031 0 16.59375 0 L 15.21875 0.015625 C 13.800781 0.015625 12.925781 -0.195312 12.59375 -0.625 C 12.445312 -0.820312 12.375 -1.054688 12.375 -1.328125 C 12.375 -1.597656 12.476562 -1.785156 12.6875 -1.890625 C 12.90625 -2.003906 13.144531 -2.066406 13.40625 -2.078125 C 13.675781 -2.085938 13.914062 -2.171875 14.125 -2.328125 C 14.34375 -2.484375 14.453125 -2.734375 14.453125 -3.078125 L 14.453125 -7.875 C 14.453125 -9.894531 14.273438 -11.285156 13.921875 -12.046875 C 13.410156 -13.160156 12.53125 -13.71875 11.28125 -13.71875 C 9.726562 -13.71875 8.539062 -13.320312 7.71875 -12.53125 C 6.90625 -11.75 6.5 -10.632812 6.5 -9.1875 L 6.5 -3.078125 C 6.5 -2.453125 6.84375 -2.117188 7.53125 -2.078125 C 8.226562 -2.046875 8.578125 -1.769531 8.578125 -1.25 C 8.578125 -0.664062 8.253906 -0.300781 7.609375 -0.15625 C 7.109375 -0.0507812 6.429688 0 5.578125 0 Z M 5.578125 0 "/></g></g><g transform="translate(198.129688, 188.310926)"><g><path d="M 2.921875 -20.21875 C 2.921875 -20.695312 3.144531 -21.140625 3.59375 -21.546875 C 4.050781 -21.960938 4.550781 -22.171875 5.09375 -22.171875 C 5.632812 -22.171875 6.160156 -22.003906 6.671875 -21.671875 C 7.179688 -21.335938 7.4375 -20.894531 7.4375 -20.34375 C 7.4375 -19.800781 7.222656 -19.34375 6.796875 -18.96875 C 6.367188 -18.601562 5.84375 -18.421875 5.21875 -18.421875 C 4.59375 -18.421875 4.050781 -18.59375 3.59375 -18.9375 C 3.144531 -19.28125 2.921875 -19.707031 2.921875 -20.21875 Z M 6.28125 0 L 4.90625 0.015625 C 3.488281 0.015625 2.613281 -0.195312 2.28125 -0.625 C 2.132812 -0.820312 2.0625 -1.054688 2.0625 -1.328125 C 2.0625 -1.597656 2.164062 -1.785156 2.375 -1.890625 C 2.59375 -2.003906 2.832031 -2.066406 3.09375 -2.078125 C 3.363281 -2.085938 3.601562 -2.171875 3.8125 -2.328125 C 4.03125 -2.484375 4.140625 -2.734375 4.140625 -3.078125 L 4.140625 -11.75 C 4.140625 -12.726562 3.757812 -13.253906 3 -13.328125 C 2.925781 -13.335938 2.828125 -13.347656 2.703125 -13.359375 C 2.585938 -13.367188 2.503906 -13.375 2.453125 -13.375 C 2.398438 -13.382812 2.332031 -13.394531 2.25 -13.40625 C 2.164062 -13.425781 2.101562 -13.445312 2.0625 -13.46875 C 2.03125 -13.488281 1.992188 -13.515625 1.953125 -13.546875 C 1.878906 -13.597656 1.84375 -13.75 1.84375 -14 C 1.84375 -14.257812 2.003906 -14.523438 2.328125 -14.796875 C 2.929688 -15.285156 3.742188 -15.53125 4.765625 -15.53125 C 5.710938 -15.53125 6.269531 -15.492188 6.4375 -15.421875 C 6.601562 -15.347656 6.742188 -15.265625 6.859375 -15.171875 C 7.085938 -15.023438 7.203125 -14.742188 7.203125 -14.328125 L 7.203125 -3.078125 C 7.203125 -2.453125 7.546875 -2.117188 8.234375 -2.078125 C 8.929688 -2.046875 9.28125 -1.769531 9.28125 -1.25 C 9.28125 -0.664062 8.957031 -0.300781 8.3125 -0.15625 C 7.820312 -0.0507812 7.144531 0 6.28125 0 Z M 6.28125 0 "/></g></g><g transform="translate(208.925586, 188.310926)"><g><path d="M 5.5625 0 L 4.171875 0.015625 C 2.765625 0.015625 1.894531 -0.195312 1.5625 -0.625 C 1.414062 -0.820312 1.34375 -1.054688 1.34375 -1.328125 C 1.34375 -1.597656 1.445312 -1.785156 1.65625 -1.890625 C 1.875 -2.003906 2.113281 -2.066406 2.375 -2.078125 C 2.632812 -2.085938 2.875 -2.171875 3.09375 -2.328125 C 3.3125 -2.484375 3.421875 -2.734375 3.421875 -3.078125 L 3.421875 -12.28125 C 3.421875 -12.90625 3.03125 -13.28125 2.25 -13.40625 C 1.71875 -13.488281 1.394531 -13.582031 1.28125 -13.6875 C 1.164062 -13.789062 1.109375 -13.972656 1.109375 -14.234375 C 1.109375 -14.492188 1.296875 -14.734375 1.671875 -14.953125 C 2.304688 -15.335938 3.101562 -15.53125 4.0625 -15.53125 C 5.03125 -15.53125 5.648438 -15.394531 5.921875 -15.125 C 6.191406 -14.851562 6.328125 -14.242188 6.328125 -13.296875 C 7.804688 -14.960938 9.832031 -15.796875 12.40625 -15.796875 C 14.5 -15.796875 15.984375 -15.222656 16.859375 -14.078125 C 17.734375 -12.929688 18.171875 -11.195312 18.171875 -8.875 L 18.171875 -3.078125 C 18.171875 -2.453125 18.515625 -2.117188 19.203125 -2.078125 C 19.898438 -2.046875 20.25 -1.769531 20.25 -1.25 C 20.25 -0.675781 19.914062 -0.3125 19.25 -0.15625 C 18.757812 -0.0507812 18.078125 0 17.203125 0 L 15.828125 0.015625 C 14.421875 0.015625 13.550781 -0.195312 13.21875 -0.625 C 13.0625 -0.820312 12.984375 -1.054688 12.984375 -1.328125 C 12.984375 -1.597656 13.085938 -1.785156 13.296875 -1.890625 C 13.515625 -2.003906 13.753906 -2.066406 14.015625 -2.078125 C 14.285156 -2.085938 14.523438 -2.171875 14.734375 -2.328125 C 14.953125 -2.484375 15.0625 -2.734375 15.0625 -3.078125 L 15.0625 -7.765625 C 15.0625 -9.765625 14.832031 -11.226562 14.375 -12.15625 C 13.851562 -13.195312 12.816406 -13.71875 11.265625 -13.71875 C 9.378906 -13.71875 8.097656 -13.21875 7.421875 -12.21875 C 6.796875 -11.269531 6.484375 -9.757812 6.484375 -7.6875 L 6.484375 -3.078125 C 6.484375 -2.453125 6.828125 -2.117188 7.515625 -2.078125 C 8.210938 -2.046875 8.5625 -1.769531 8.5625 -1.25 C 8.5625 -0.664062 8.234375 -0.300781 7.578125 -0.15625 C 7.097656 -0.0507812 6.425781 0 5.5625 0 Z M 5.5625 0 "/></g></g><g transform="translate(230.130663, 188.310926)"><g><path d="M 2.921875 -20.21875 C 2.921875 -20.695312 3.144531 -21.140625 3.59375 -21.546875 C 4.050781 -21.960938 4.550781 -22.171875 5.09375 -22.171875 C 5.632812 -22.171875 6.160156 -22.003906 6.671875 -21.671875 C 7.179688 -21.335938 7.4375 -20.894531 7.4375 -20.34375 C 7.4375 -19.800781 7.222656 -19.34375 6.796875 -18.96875 C 6.367188 -18.601562 5.84375 -18.421875 5.21875 -18.421875 C 4.59375 -18.421875 4.050781 -18.59375 3.59375 -18.9375 C 3.144531 -19.28125 2.921875 -19.707031 2.921875 -20.21875 Z M 6.28125 0 L 4.90625 0.015625 C 3.488281 0.015625 2.613281 -0.195312 2.28125 -0.625 C 2.132812 -0.820312 2.0625 -1.054688 2.0625 -1.328125 C 2.0625 -1.597656 2.164062 -1.785156 2.375 -1.890625 C 2.59375 -2.003906 2.832031 -2.066406 3.09375 -2.078125 C 3.363281 -2.085938 3.601562 -2.171875 3.8125 -2.328125 C 4.03125 -2.484375 4.140625 -2.734375 4.140625 -3.078125 L 4.140625 -11.75 C 4.140625 -12.726562 3.757812 -13.253906 3 -13.328125 C 2.925781 -13.335938 2.828125 -13.347656 2.703125 -13.359375 C 2.585938 -13.367188 2.503906 -13.375 2.453125 -13.375 C 2.398438 -13.382812 2.332031 -13.394531 2.25 -13.40625 C 2.164062 -13.425781 2.101562 -13.445312 2.0625 -13.46875 C 2.03125 -13.488281 1.992188 -13.515625 1.953125 -13.546875 C 1.878906 -13.597656 1.84375 -13.75 1.84375 -14 C 1.84375 -14.257812 2.003906 -14.523438 2.328125 -14.796875 C 2.929688 -15.285156 3.742188 -15.53125 4.765625 -15.53125 C 5.710938 -15.53125 6.269531 -15.492188 6.4375 -15.421875 C 6.601562 -15.347656 6.742188 -15.265625 6.859375 -15.171875 C 7.085938 -15.023438 7.203125 -14.742188 7.203125 -14.328125 L 7.203125 -3.078125 C 7.203125 -2.453125 7.546875 -2.117188 8.234375 -2.078125 C 8.929688 -2.046875 9.28125 -1.769531 9.28125 -1.25 C 9.28125 -0.664062 8.957031 -0.300781 8.3125 -0.15625 C 7.820312 -0.0507812 7.144531 0 6.28125 0 Z M 6.28125 0 "/></g></g><g transform="translate(240.926561, 188.310926)"><g><path d="M 15.390625 6.609375 L 14 6.625 C 12.59375 6.625 11.722656 6.410156 11.390625 5.984375 C 11.242188 5.785156 11.171875 5.546875 11.171875 5.265625 C 11.171875 4.992188 11.273438 4.804688 11.484375 4.703125 C 11.703125 4.597656 11.941406 4.539062 12.203125 4.53125 C 12.460938 4.519531 12.703125 4.4375 12.921875 4.28125 C 13.140625 4.125 13.25 3.875 13.25 3.53125 L 13.25 -1.390625 C 11.164062 -0.148438 9.335938 0.46875 7.765625 0.46875 C 5.660156 0.46875 3.914062 -0.257812 2.53125 -1.71875 C 1.15625 -3.1875 0.46875 -5.078125 0.46875 -7.390625 C 0.46875 -9.703125 1.253906 -11.660156 2.828125 -13.265625 C 4.398438 -14.878906 6.398438 -15.6875 8.828125 -15.6875 C 9.523438 -15.6875 10.347656 -15.53125 11.296875 -15.21875 C 12.242188 -14.914062 13.046875 -14.550781 13.703125 -14.125 C 13.828125 -15.0625 14.472656 -15.53125 15.640625 -15.53125 C 17.992188 -15.53125 19.171875 -15.015625 19.171875 -13.984375 C 19.171875 -13.710938 18.914062 -13.515625 18.40625 -13.390625 C 17.46875 -13.148438 16.882812 -12.835938 16.65625 -12.453125 C 16.425781 -12.066406 16.3125 -11.375 16.3125 -10.375 L 16.3125 3.53125 C 16.3125 4.15625 16.65625 4.484375 17.34375 4.515625 C 18.039062 4.554688 18.390625 4.832031 18.390625 5.34375 C 18.390625 5.9375 18.0625 6.304688 17.40625 6.453125 C 16.925781 6.554688 16.253906 6.609375 15.390625 6.609375 Z M 3.65625 -7.8125 C 3.65625 -6.800781 3.835938 -5.828125 4.203125 -4.890625 C 4.578125 -3.953125 5.140625 -3.15625 5.890625 -2.5 C 6.648438 -1.851562 7.507812 -1.53125 8.46875 -1.53125 C 10.601562 -1.53125 12.195312 -2.175781 13.25 -3.46875 L 13.25 -11.734375 C 13.25 -12.140625 13 -12.519531 12.5 -12.875 C 11.476562 -13.59375 10.328125 -13.953125 9.046875 -13.953125 C 7.347656 -13.953125 6.023438 -13.367188 5.078125 -12.203125 C 4.128906 -11.046875 3.65625 -9.582031 3.65625 -7.8125 Z M 3.65625 -7.8125 "/></g></g><g transform="translate(260.37529, 188.310926)"><g><path d="M 5.421875 -6.984375 C 5.421875 -5.503906 5.535156 -4.460938 5.765625 -3.859375 C 6.003906 -3.253906 6.273438 -2.820312 6.578125 -2.5625 C 7.203125 -2.019531 8.238281 -1.75 9.6875 -1.75 C 11.144531 -1.75 12.210938 -2.125 12.890625 -2.875 C 13.566406 -3.625 13.90625 -4.875 13.90625 -6.625 L 13.90625 -12.0625 C 13.90625 -12.863281 13.515625 -13.289062 12.734375 -13.34375 C 12.109375 -13.375 11.765625 -13.441406 11.703125 -13.546875 C 11.640625 -13.648438 11.609375 -13.765625 11.609375 -13.890625 C 11.609375 -14.429688 11.921875 -14.835938 12.546875 -15.109375 C 13.171875 -15.390625 13.914062 -15.53125 14.78125 -15.53125 C 15.644531 -15.53125 16.226562 -15.410156 16.53125 -15.171875 C 16.84375 -14.941406 17 -14.382812 17 -13.5 L 17.015625 -3.1875 C 17.015625 -2.457031 17.398438 -2.066406 18.171875 -2.015625 C 18.722656 -1.984375 19.054688 -1.925781 19.171875 -1.84375 C 19.296875 -1.757812 19.359375 -1.570312 19.359375 -1.28125 C 19.359375 -0.988281 19.179688 -0.71875 18.828125 -0.46875 C 18.191406 -0.0390625 17.363281 0.171875 16.34375 0.171875 C 15.332031 0.171875 14.703125 0.0195312 14.453125 -0.28125 C 14.210938 -0.582031 14.09375 -1.289062 14.09375 -2.40625 C 12.800781 -0.507812 10.816406 0.4375 8.140625 0.4375 C 6.023438 0.4375 4.519531 -0.128906 3.625 -1.265625 C 2.738281 -2.410156 2.296875 -4.171875 2.296875 -6.546875 L 2.296875 -12.0625 C 2.296875 -12.863281 1.914062 -13.289062 1.15625 -13.34375 C 0.519531 -13.375 0.171875 -13.441406 0.109375 -13.546875 C 0.046875 -13.648438 0.015625 -13.765625 0.015625 -13.890625 C 0.015625 -14.429688 0.328125 -14.835938 0.953125 -15.109375 C 1.578125 -15.390625 2.320312 -15.53125 3.1875 -15.53125 C 4.050781 -15.53125 4.640625 -15.410156 4.953125 -15.171875 C 5.265625 -14.941406 5.421875 -14.382812 5.421875 -13.5 Z M 5.421875 -6.984375 "/></g></g><g transform="translate(280.694137, 188.310926)"><g><path d="M 2.75 -1.75 C 1.257812 -3.21875 0.515625 -5.160156 0.515625 -7.578125 C 0.515625 -9.992188 1.265625 -11.957031 2.765625 -13.46875 C 4.265625 -14.976562 6.171875 -15.734375 8.484375 -15.734375 C 10.328125 -15.734375 11.878906 -15.140625 13.140625 -13.953125 C 14.398438 -12.765625 15.03125 -11.269531 15.03125 -9.46875 C 15.03125 -8.601562 14.34375 -8.171875 12.96875 -8.171875 L 3.640625 -8.171875 C 3.660156 -6.429688 4.222656 -4.960938 5.328125 -3.765625 C 6.441406 -2.578125 7.835938 -1.984375 9.515625 -1.984375 C 10.640625 -1.984375 11.726562 -2.3125 12.78125 -2.96875 C 13.332031 -3.3125 13.6875 -3.484375 13.84375 -3.484375 C 14 -3.484375 14.175781 -3.40625 14.375 -3.25 C 14.570312 -3.09375 14.671875 -2.898438 14.671875 -2.671875 C 14.671875 -2.078125 14.289062 -1.53125 13.53125 -1.03125 C 12.78125 -0.539062 11.945312 -0.175781 11.03125 0.0625 C 10.125 0.3125 9.328125 0.4375 8.640625 0.4375 C 6.203125 0.4375 4.238281 -0.289062 2.75 -1.75 Z M 12.0625 -9.859375 C 12.039062 -11.097656 11.71875 -12.101562 11.09375 -12.875 C 10.476562 -13.644531 9.570312 -14.03125 8.375 -14.03125 C 7.175781 -14.03125 6.128906 -13.597656 5.234375 -12.734375 C 4.335938 -11.878906 3.859375 -10.898438 3.796875 -9.796875 L 7.578125 -9.796875 C 9.253906 -9.796875 10.75 -9.816406 12.0625 -9.859375 Z M 12.0625 -9.859375 "/></g></g></g><g fill="#000000" fill-opacity="1"><g transform="translate(146.725395, 234.060923)"><g><path d="M 10 -20.859375 C 8.695312 -20.859375 7.671875 -20.6875 6.921875 -20.34375 C 5.578125 -19.726562 4.90625 -18.910156 4.90625 -17.890625 C 4.90625 -17.335938 5.054688 -16.898438 5.359375 -16.578125 C 6.191406 -15.710938 7.28125 -14.976562 8.625 -14.375 C 9.425781 -14.019531 10.59375 -13.5625 12.125 -13 C 13.65625 -12.445312 14.6875 -12.046875 15.21875 -11.796875 C 15.757812 -11.546875 16.359375 -11.210938 17.015625 -10.796875 C 17.679688 -10.378906 18.226562 -9.941406 18.65625 -9.484375 C 19.6875 -8.398438 20.203125 -7.160156 20.203125 -5.765625 C 20.203125 -4.765625 19.929688 -3.863281 19.390625 -3.0625 C 18.847656 -2.257812 18.125 -1.613281 17.21875 -1.125 C 15.363281 -0.113281 13.25 0.390625 10.875 0.390625 C 7.675781 0.390625 5.0625 -0.171875 3.03125 -1.296875 C 2.351562 -1.671875 1.796875 -2.148438 1.359375 -2.734375 C 0.929688 -3.328125 0.71875 -3.957031 0.71875 -4.625 C 0.71875 -5.300781 0.921875 -5.832031 1.328125 -6.21875 C 1.742188 -6.601562 2.328125 -6.796875 3.078125 -6.796875 C 3.835938 -6.796875 4.429688 -6.53125 4.859375 -6 C 5.285156 -5.476562 5.5 -4.796875 5.5 -3.953125 C 5.5 -3.617188 5.460938 -3.257812 5.390625 -2.875 C 7.023438 -2.03125 8.773438 -1.609375 10.640625 -1.609375 C 12.273438 -1.609375 13.675781 -1.859375 14.84375 -2.359375 C 16.164062 -2.921875 16.828125 -3.90625 16.828125 -5.3125 C 16.828125 -6.789062 15.351562 -8.09375 12.40625 -9.21875 C 11.914062 -9.394531 11.15625 -9.660156 10.125 -10.015625 C 8.019531 -10.753906 6.429688 -11.398438 5.359375 -11.953125 C 2.753906 -13.328125 1.453125 -15.050781 1.453125 -17.125 C 1.453125 -18.101562 1.710938 -18.972656 2.234375 -19.734375 C 2.765625 -20.503906 3.46875 -21.109375 4.34375 -21.546875 C 6.132812 -22.421875 8.222656 -22.859375 10.609375 -22.859375 C 13.410156 -22.859375 15.675781 -22.394531 17.40625 -21.46875 C 18.007812 -21.132812 18.5 -20.703125 18.875 -20.171875 C 19.257812 -19.640625 19.453125 -19.035156 19.453125 -18.359375 C 19.453125 -17.691406 19.21875 -17.140625 18.75 -16.703125 C 18.28125 -16.265625 17.703125 -16.046875 17.015625 -16.046875 C 16.328125 -16.046875 15.820312 -16.078125 15.5 -16.140625 C 15.363281 -18.035156 14.921875 -19.296875 14.171875 -19.921875 C 13.429688 -20.546875 12.039062 -20.859375 10 -20.859375 Z M 10 -20.859375 "/></g></g><g transform="translate(167.447073, 234.060923)"><g><path d="M 15.28125 -7.421875 C 15.28125 -9.910156 14.554688 -11.71875 13.109375 -12.84375 C 12.359375 -13.425781 11.460938 -13.71875 10.421875 -13.71875 C 7.335938 -13.71875 5.796875 -11.984375 5.796875 -8.515625 L 5.796875 -3.203125 C 6.671875 -2.078125 8.171875 -1.515625 10.296875 -1.515625 C 11.835938 -1.515625 13.050781 -2.066406 13.9375 -3.171875 C 14.832031 -4.285156 15.28125 -5.703125 15.28125 -7.421875 Z M 4.875 6.609375 L 3.5 6.625 C 2.09375 6.625 1.222656 6.410156 0.890625 5.984375 C 0.734375 5.785156 0.65625 5.546875 0.65625 5.265625 C 0.65625 4.992188 0.765625 4.804688 0.984375 4.703125 C 1.203125 4.597656 1.441406 4.539062 1.703125 4.53125 C 1.960938 4.519531 2.195312 4.4375 2.40625 4.28125 C 2.625 4.125 2.734375 3.875 2.734375 3.53125 L 2.734375 -11 C 2.734375 -11.78125 2.675781 -12.316406 2.5625 -12.609375 C 2.457031 -12.898438 2.207031 -13.125 1.8125 -13.28125 C 1.757812 -13.300781 1.539062 -13.351562 1.15625 -13.4375 C 0.351562 -13.632812 -0.046875 -13.90625 -0.046875 -14.25 C -0.046875 -15.082031 1.03125 -15.5 3.1875 -15.5 C 4.101562 -15.5 4.742188 -15.390625 5.109375 -15.171875 C 5.472656 -14.960938 5.65625 -14.503906 5.65625 -13.796875 C 5.65625 -13.578125 5.648438 -13.414062 5.640625 -13.3125 C 6.460938 -14.113281 7.289062 -14.722656 8.125 -15.140625 C 8.96875 -15.566406 10.039062 -15.78125 11.34375 -15.78125 C 12.644531 -15.78125 13.859375 -15.410156 14.984375 -14.671875 C 16.117188 -13.941406 16.976562 -12.976562 17.5625 -11.78125 C 18.144531 -10.582031 18.4375 -9.25 18.4375 -7.78125 C 18.4375 -5.445312 17.671875 -3.519531 16.140625 -2 C 14.617188 -0.488281 12.679688 0.265625 10.328125 0.265625 C 9.003906 0.265625 7.492188 -0.171875 5.796875 -1.046875 L 5.796875 3.53125 C 5.796875 4.15625 6.140625 4.484375 6.828125 4.515625 C 7.523438 4.554688 7.875 4.832031 7.875 5.34375 C 7.875 5.9375 7.546875 6.304688 6.890625 6.453125 C 6.421875 6.554688 5.75 6.609375 4.875 6.609375 Z M 4.875 6.609375 "/></g></g><g transform="translate(186.460744, 234.060923)"><g><path d="M 2.75 -1.75 C 1.257812 -3.21875 0.515625 -5.160156 0.515625 -7.578125 C 0.515625 -9.992188 1.265625 -11.957031 2.765625 -13.46875 C 4.265625 -14.976562 6.171875 -15.734375 8.484375 -15.734375 C 10.328125 -15.734375 11.878906 -15.140625 13.140625 -13.953125 C 14.398438 -12.765625 15.03125 -11.269531 15.03125 -9.46875 C 15.03125 -8.601562 14.34375 -8.171875 12.96875 -8.171875 L 3.640625 -8.171875 C 3.660156 -6.429688 4.222656 -4.960938 5.328125 -3.765625 C 6.441406 -2.578125 7.835938 -1.984375 9.515625 -1.984375 C 10.640625 -1.984375 11.726562 -2.3125 12.78125 -2.96875 C 13.332031 -3.3125 13.6875 -3.484375 13.84375 -3.484375 C 14 -3.484375 14.175781 -3.40625 14.375 -3.25 C 14.570312 -3.09375 14.671875 -2.898438 14.671875 -2.671875 C 14.671875 -2.078125 14.289062 -1.53125 13.53125 -1.03125 C 12.78125 -0.539062 11.945312 -0.175781 11.03125 0.0625 C 10.125 0.3125 9.328125 0.4375 8.640625 0.4375 C 6.203125 0.4375 4.238281 -0.289062 2.75 -1.75 Z M 12.0625 -9.859375 C 12.039062 -11.097656 11.71875 -12.101562 11.09375 -12.875 C 10.476562 -13.644531 9.570312 -14.03125 8.375 -14.03125 C 7.175781 -14.03125 6.128906 -13.597656 5.234375 -12.734375 C 4.335938 -11.878906 3.859375 -10.898438 3.796875 -9.796875 L 7.578125 -9.796875 C 9.253906 -9.796875 10.75 -9.816406 12.0625 -9.859375 Z M 12.0625 -9.859375 "/></g></g><g transform="translate(202.493458, 234.060923)"><g><path d="M 5.5625 0 L 4.171875 0.015625 C 2.765625 0.015625 1.894531 -0.195312 1.5625 -0.625 C 1.414062 -0.820312 1.34375 -1.054688 1.34375 -1.328125 C 1.34375 -1.597656 1.445312 -1.785156 1.65625 -1.890625 C 1.875 -2.003906 2.113281 -2.066406 2.375 -2.078125 C 2.632812 -2.085938 2.875 -2.171875 3.09375 -2.328125 C 3.3125 -2.484375 3.421875 -2.734375 3.421875 -3.078125 L 3.421875 -12.28125 C 3.421875 -12.90625 3.03125 -13.28125 2.25 -13.40625 C 1.71875 -13.488281 1.394531 -13.582031 1.28125 -13.6875 C 1.164062 -13.789062 1.109375 -13.972656 1.109375 -14.234375 C 1.109375 -14.492188 1.296875 -14.734375 1.671875 -14.953125 C 2.304688 -15.335938 3.101562 -15.53125 4.0625 -15.53125 C 5.03125 -15.53125 5.648438 -15.394531 5.921875 -15.125 C 6.191406 -14.851562 6.328125 -14.242188 6.328125 -13.296875 C 7.804688 -14.960938 9.832031 -15.796875 12.40625 -15.796875 C 14.5 -15.796875 15.984375 -15.222656 16.859375 -14.078125 C 17.734375 -12.929688 18.171875 -11.195312 18.171875 -8.875 L 18.171875 -3.078125 C 18.171875 -2.453125 18.515625 -2.117188 19.203125 -2.078125 C 19.898438 -2.046875 20.25 -1.769531 20.25 -1.25 C 20.25 -0.675781 19.914062 -0.3125 19.25 -0.15625 C 18.757812 -0.0507812 18.078125 0 17.203125 0 L 15.828125 0.015625 C 14.421875 0.015625 13.550781 -0.195312 13.21875 -0.625 C 13.0625 -0.820312 12.984375 -1.054688 12.984375 -1.328125 C 12.984375 -1.597656 13.085938 -1.785156 13.296875 -1.890625 C 13.515625 -2.003906 13.753906 -2.066406 14.015625 -2.078125 C 14.285156 -2.085938 14.523438 -2.171875 14.734375 -2.328125 C 14.953125 -2.484375 15.0625 -2.734375 15.0625 -3.078125 L 15.0625 -7.765625 C 15.0625 -9.765625 14.832031 -11.226562 14.375 -12.15625 C 13.851562 -13.195312 12.816406 -13.71875 11.265625 -13.71875 C 9.378906 -13.71875 8.097656 -13.21875 7.421875 -12.21875 C 6.796875 -11.269531 6.484375 -9.757812 6.484375 -7.6875 L 6.484375 -3.078125 C 6.484375 -2.453125 6.828125 -2.117188 7.515625 -2.078125 C 8.210938 -2.046875 8.5625 -1.769531 8.5625 -1.25 C 8.5625 -0.664062 8.234375 -0.300781 7.578125 -0.15625 C 7.097656 -0.0507812 6.425781 0 5.5625 0 Z M 5.5625 0 "/></g></g><g transform="translate(223.698535, 234.060923)"><g><path d="M 14.859375 -3.140625 C 15.335938 -3.140625 15.578125 -2.914062 15.578125 -2.46875 C 15.578125 -2.21875 15.503906 -2.015625 15.359375 -1.859375 C 13.929688 -0.328125 11.878906 0.4375 9.203125 0.4375 C 6.523438 0.4375 4.40625 -0.285156 2.84375 -1.734375 C 1.28125 -3.191406 0.5 -5.113281 0.5 -7.5 C 0.5 -9.050781 0.875 -10.457031 1.625 -11.71875 C 2.382812 -12.976562 3.414062 -13.960938 4.71875 -14.671875 C 6.03125 -15.390625 7.484375 -15.75 9.078125 -15.75 C 11.296875 -15.75 13.007812 -15.171875 14.21875 -14.015625 C 14.84375 -13.398438 15.15625 -12.6875 15.15625 -11.875 C 15.15625 -11.394531 14.953125 -10.988281 14.546875 -10.65625 C 14.148438 -10.320312 13.671875 -10.15625 13.109375 -10.15625 C 12.554688 -10.15625 12.15625 -10.203125 11.90625 -10.296875 C 11.832031 -11.515625 11.582031 -12.445312 11.15625 -13.09375 C 10.726562 -13.738281 10.019531 -14.0625 9.03125 -14.0625 C 7.394531 -14.0625 6.109375 -13.539062 5.171875 -12.5 C 4.242188 -11.457031 3.78125 -10.054688 3.78125 -8.296875 C 3.78125 -6.535156 4.375 -5.003906 5.5625 -3.703125 C 6.75 -2.398438 8.25 -1.75 10.0625 -1.75 C 11.125 -1.75 12.425781 -2.128906 13.96875 -2.890625 C 14.300781 -3.054688 14.597656 -3.140625 14.859375 -3.140625 Z M 14.859375 -3.140625 "/></g></g><g transform="translate(240.23076, 234.060923)"><g><path d="M 2.75 -1.75 C 1.257812 -3.21875 0.515625 -5.160156 0.515625 -7.578125 C 0.515625 -9.992188 1.265625 -11.957031 2.765625 -13.46875 C 4.265625 -14.976562 6.171875 -15.734375 8.484375 -15.734375 C 10.328125 -15.734375 11.878906 -15.140625 13.140625 -13.953125 C 14.398438 -12.765625 15.03125 -11.269531 15.03125 -9.46875 C 15.03125 -8.601562 14.34375 -8.171875 12.96875 -8.171875 L 3.640625 -8.171875 C 3.660156 -6.429688 4.222656 -4.960938 5.328125 -3.765625 C 6.441406 -2.578125 7.835938 -1.984375 9.515625 -1.984375 C 10.640625 -1.984375 11.726562 -2.3125 12.78125 -2.96875 C 13.332031 -3.3125 13.6875 -3.484375 13.84375 -3.484375 C 14 -3.484375 14.175781 -3.40625 14.375 -3.25 C 14.570312 -3.09375 14.671875 -2.898438 14.671875 -2.671875 C 14.671875 -2.078125 14.289062 -1.53125 13.53125 -1.03125 C 12.78125 -0.539062 11.945312 -0.175781 11.03125 0.0625 C 10.125 0.3125 9.328125 0.4375 8.640625 0.4375 C 6.203125 0.4375 4.238281 -0.289062 2.75 -1.75 Z M 12.0625 -9.859375 C 12.039062 -11.097656 11.71875 -12.101562 11.09375 -12.875 C 10.476562 -13.644531 9.570312 -14.03125 8.375 -14.03125 C 7.175781 -14.03125 6.128906 -13.597656 5.234375 -12.734375 C 4.335938 -11.878906 3.859375 -10.898438 3.796875 -9.796875 L 7.578125 -9.796875 C 9.253906 -9.796875 10.75 -9.816406 12.0625 -9.859375 Z M 12.0625 -9.859375 "/></g></g><g transform="translate(256.263474, 234.060923)"><g><path d="M 5.609375 0 L 4.21875 0.015625 C 2.8125 0.015625 1.941406 -0.195312 1.609375 -0.625 C 1.460938 -0.820312 1.390625 -1.054688 1.390625 -1.328125 C 1.390625 -1.597656 1.492188 -1.785156 1.703125 -1.890625 C 1.921875 -2.003906 2.160156 -2.066406 2.421875 -2.078125 C 2.679688 -2.085938 2.921875 -2.171875 3.140625 -2.328125 C 3.359375 -2.484375 3.46875 -2.734375 3.46875 -3.078125 L 3.46875 -11.03125 C 3.46875 -11.988281 3.347656 -12.582031 3.109375 -12.8125 C 2.878906 -13.039062 2.6875 -13.1875 2.53125 -13.25 C 2.375 -13.3125 2.128906 -13.390625 1.796875 -13.484375 C 1.472656 -13.578125 1.203125 -13.671875 0.984375 -13.765625 C 0.773438 -13.867188 0.671875 -14.019531 0.671875 -14.21875 C 0.671875 -15.070312 1.828125 -15.5 4.140625 -15.5 C 5.117188 -15.5 5.738281 -15.328125 6 -14.984375 C 6.257812 -14.648438 6.390625 -13.875 6.390625 -12.65625 C 6.753906 -13.570312 7.359375 -14.289062 8.203125 -14.8125 C 9.046875 -15.34375 9.910156 -15.609375 10.796875 -15.609375 C 11.691406 -15.609375 12.425781 -15.414062 13 -15.03125 C 13.570312 -14.65625 13.859375 -14.175781 13.859375 -13.59375 C 13.859375 -13.007812 13.671875 -12.539062 13.296875 -12.1875 C 12.921875 -11.84375 12.457031 -11.671875 11.90625 -11.671875 C 11.363281 -11.671875 10.894531 -11.8125 10.5 -12.09375 C 10.101562 -12.382812 9.847656 -12.765625 9.734375 -13.234375 C 9.453125 -13.273438 9.222656 -13.296875 9.046875 -13.296875 C 7.367188 -13.296875 6.53125 -11.367188 6.53125 -7.515625 L 6.53125 -3.078125 C 6.53125 -2.453125 6.875 -2.117188 7.5625 -2.078125 C 8.257812 -2.046875 8.609375 -1.769531 8.609375 -1.25 C 8.609375 -0.664062 8.285156 -0.300781 7.640625 -0.15625 C 7.140625 -0.0507812 6.460938 0 5.609375 0 Z M 5.609375 0 "/></g></g></g></svg>