<svg xmlns="http://www.w3.org/2000/svg" xmlns:xlink="http://www.w3.org/1999/xlink" width="500" zoomAndPan="magnify" viewBox="0 0 375 374.999991" height="500" preserveAspectRatio="xMidYMid meet" version="1.0"><defs><clipPath id="b604f38926"><path d="M 5 16.070312 L 247 16.070312 L 247 251 L 5 251 Z M 5 16.070312 " clip-rule="nonzero"/></clipPath><clipPath id="7923b6a7d3"><path d="M 169 96 L 371 96 L 371 358.820312 L 169 358.820312 Z M 169 96 " clip-rule="nonzero"/></clipPath></defs><path fill="#1b9d99" d="M 324.597656 79.738281 C 323.589844 74.128906 323.234375 68.332031 321.253906 62.953125 C 318.09375 55.347656 311.53125 49.847656 304.835938 45.394531 C 304.359375 45.089844 303.863281 44.804688 303.355469 44.570312 C 302.78125 44.308594 302.429688 44.597656 302.519531 45.222656 C 320 112.96875 299.3125 186.992188 254.589844 239.90625 C 225.980469 274.585938 187.75 301.621094 144.859375 315.453125 C 124.503906 322.195312 103.050781 324.722656 81.667969 323.632812 C 77.867188 324.8125 98.425781 336.023438 99.929688 336.105469 C 112.785156 341.8125 126.945312 338.992188 140.207031 336.398438 C 242.953125 314.21875 324.699219 215.496094 326.5625 110.269531 C 326.621094 100.074219 326.085938 89.832031 324.597656 79.738281 Z M 324.597656 79.738281 " fill-opacity="1" fill-rule="nonzero"/><path fill="#1b9d99" d="M 94.785156 319.367188 C 137.191406 318.804688 177.851562 300.625 211.140625 275.140625 C 273.289062 227.941406 312.53125 148.8125 302.984375 70.273438 C 302.148438 62.378906 300.746094 54.542969 298.867188 46.839844 C 297.144531 39.113281 289.394531 34.9375 282.710938 31.933594 C 281.425781 31.1875 281.695312 32.417969 281.914062 33.296875 C 286.753906 54.398438 288.570312 75.421875 287.039062 97.214844 C 281.382812 176.246094 229.476562 248.929688 158.355469 282.933594 C 129.402344 296.722656 96.941406 304.757812 64.796875 301.132812 C 60.71875 300.664062 56.699219 299.675781 52.621094 299.253906 C 52.234375 299.257812 52.003906 299.589844 52.1875 299.941406 C 52.488281 300.523438 52.792969 301.128906 53.203125 301.632812 C 54.167969 302.800781 55.164062 303.941406 56.207031 305.03125 C 67.453125 317.128906 78.644531 320.246094 94.785156 319.367188 Z M 94.785156 319.367188 " fill-opacity="1" fill-rule="nonzero"/><path fill="#1b9d99" d="M 176.757812 267.613281 C 243.894531 226.003906 288.335938 147.921875 283.09375 68.246094 C 282.488281 55.390625 280.109375 42.714844 277.511719 30.136719 C 277.425781 28.832031 275.964844 28.691406 275.054688 28.136719 C 271.449219 26.734375 267.945312 25.023438 264.25 23.867188 C 263.730469 23.722656 263.558594 23.882812 263.648438 24.425781 C 264.570312 28.71875 265.375 33.035156 265.941406 37.398438 C 268.496094 55.390625 268.742188 73.652344 266.867188 91.71875 C 257.035156 189.691406 169.835938 278.945312 69.304688 278.949219 C 56.722656 279.007812 44.375 276.769531 32.21875 273.734375 C 31.902344 273.710938 31.667969 274.007812 31.773438 274.296875 C 34.644531 280.238281 39.003906 285.289062 43.960938 289.617188 C 49.96875 295.179688 58.285156 295.886719 66.066406 296.757812 C 104.957031 300.828125 143.933594 287.90625 176.757812 267.613281 Z M 176.757812 267.613281 " fill-opacity="1" fill-rule="nonzero"/><path fill="#d3a936" d="M 263.71875 52.09375 C 262.914062 42.195312 261.523438 32.371094 259.578125 22.636719 C 259.511719 22.257812 259.324219 22.0625 258.964844 21.960938 C 255.3125 20.820312 251.601562 19.890625 247.890625 18.945312 C 247.527344 18.855469 247.339844 19.003906 247.359375 19.371094 C 247.875 23.632812 248.6875 27.863281 249.148438 32.140625 C 250.96875 48.921875 251.101562 66.042969 248.871094 82.933594 C 237.359375 182.964844 136.757812 273.046875 34.066406 251.972656 C 28.199219 250.660156 22.523438 248.722656 16.828125 246.828125 C 16.351562 246.691406 16.039062 246.933594 16.140625 247.398438 C 16.277344 248.042969 16.460938 248.683594 16.71875 249.285156 C 19.476562 255.464844 22.859375 261.589844 28 266.113281 C 32.476562 270.101562 38.6875 270.757812 44.328125 272 C 97.03125 282.875 150.511719 260.777344 189.800781 226.105469 C 239.222656 183.324219 268.933594 117.730469 263.71875 52.09375 Z M 263.71875 52.09375 " fill-opacity="1" fill-rule="nonzero"/><g clip-path="url(#b604f38926)"><path fill="#d3a936" d="M 204.824219 176.863281 C 233.28125 140.847656 248.554688 94.710938 246.675781 48.808594 C 246.3125 38.699219 245.171875 28.632812 243.660156 18.636719 C 243.554688 17.871094 243.542969 17.839844 242.691406 17.6875 C 240.644531 17.324219 238.59375 16.964844 236.542969 16.621094 C 235.375 16.429688 234.207031 16.265625 233.035156 16.105469 C 231.972656 15.851562 232.394531 17.382812 232.40625 17.984375 C 234.734375 33.125 235.640625 48.492188 234.394531 63.785156 C 228.882812 149.542969 155.027344 224.945312 68.929688 230.222656 C 53.476562 231.238281 37.765625 229.796875 22.976562 225.085938 C 17.128906 223.3125 11.542969 220.871094 5.949219 218.445312 C 5.660156 218.339844 5.359375 218.558594 5.359375 218.875 C 6.683594 226.746094 9.78125 234.859375 15.449219 240.648438 C 17.449219 242.65625 20.292969 243.363281 22.875 244.324219 C 89.96875 265.878906 163.644531 230.671875 204.824219 176.863281 Z M 204.824219 176.863281 " fill-opacity="1" fill-rule="nonzero"/></g><path fill="#d3a936" d="M 9.121094 214.992188 C 82.84375 248.402344 171.382812 202.128906 208.566406 135.230469 C 214.652344 124.378906 220.117188 112.976562 222.792969 100.753906 C 222.863281 100.386719 222.910156 100.011719 222.933594 99.636719 C 222.996094 99.015625 222.246094 98.789062 221.878906 99.234375 C 221.40625 99.824219 220.957031 100.433594 220.554688 101.070312 C 210.378906 117.957031 198.117188 133.542969 185.078125 148.300781 C 142.429688 197.097656 60.953125 223.007812 2.515625 188.265625 C 1.742188 187.96875 0.320312 186.65625 0.175781 188.105469 C 0.160156 189.382812 0.15625 190.667969 0.261719 191.933594 C 1.214844 199.4375 1.792969 210.890625 9.121094 214.992188 Z M 9.121094 214.992188 " fill-opacity="1" fill-rule="nonzero"/><path fill="#cb968b" d="M 183.5625 140.941406 C 149.277344 164.261719 112.476562 179.765625 70.238281 176.589844 C 46.148438 174.898438 21.648438 168.203125 3.148438 152.058594 C 1.398438 150.339844 0.546875 165.042969 0.285156 166.261719 C -0.128906 172.933594 -0.5625 181.136719 5.9375 185.152344 C 26.003906 198.253906 50.292969 201.03125 73.816406 199.246094 C 105.824219 196.9375 136.851562 184.574219 161.910156 164.558594 C 164.394531 163.207031 188.414062 141.140625 183.5625 140.941406 Z M 183.5625 140.941406 " fill-opacity="1" fill-rule="nonzero"/><path fill="#cb968b" d="M 10.628906 152.226562 C 26.285156 166.863281 49.042969 170.769531 69.722656 172.25 C 95.683594 173.800781 126.703125 169.570312 149.085938 155.484375 C 138.347656 155.640625 127.550781 157.269531 116.742188 156.558594 C 79.882812 155.050781 43.679688 139.722656 17.519531 113.613281 C 17.007812 113.125 16.492188 112.632812 15.957031 112.171875 C 15.292969 111.605469 15.203125 111.609375 14.800781 112.332031 C 12.085938 117.371094 10.207031 122.800781 8.316406 128.1875 C 5.511719 136.738281 3.230469 145.269531 10.628906 152.226562 Z M 10.628906 152.226562 " fill-opacity="1" fill-rule="nonzero"/><path fill="#006663" d="M 347.277344 96.140625 C 345.613281 83.949219 337.050781 73.988281 328.429688 65.773438 C 328.09375 65.457031 327.667969 65.214844 327.253906 65.007812 C 326.765625 64.761719 326.519531 64.933594 326.554688 65.445312 C 328.195312 75.261719 330 85.109375 330.46875 95.070312 C 334.261719 150.484375 315.15625 206.066406 281.253906 249.691406 C 243.199219 299.15625 186.519531 336.59375 123.734375 343.554688 C 122.9375 343.644531 122.140625 343.761719 121.351562 343.917969 C 120.085938 344.269531 121.507812 345.4375 122.128906 345.722656 C 135.742188 352.800781 151.847656 356.421875 166.953125 352.480469 C 181.996094 348.414062 196.886719 343.570312 210.898438 336.695312 C 298.433594 293.375 360.9375 195.117188 347.277344 96.140625 Z M 347.277344 96.140625 " fill-opacity="1" fill-rule="nonzero"/><g clip-path="url(#7923b6a7d3)"><path fill="#006663" d="M 366.171875 188.046875 C 368.054688 178.597656 369.667969 169.070312 370.464844 159.464844 C 371.679688 137.410156 364.472656 115.242188 352.519531 96.863281 C 351.113281 95.640625 352.390625 102.125 352.359375 102.636719 C 353.585938 116.097656 353.957031 129.664062 352.863281 143.148438 C 345.09375 234.914062 278.183594 317.753906 192.472656 349.539062 C 185.265625 352.125 177.878906 354.144531 170.519531 356.25 C 169.820312 356.457031 169.699219 356.730469 169.929688 357.390625 C 169.535156 358.96875 175.914062 358.609375 176.683594 358.804688 C 188.007812 359.109375 200.226562 358.941406 211.585938 356.730469 C 234.726562 353.042969 255.511719 341.503906 273.941406 327.4375 C 319.066406 293.269531 354.679688 244.03125 366.171875 188.046875 Z M 366.171875 188.046875 " fill-opacity="1" fill-rule="nonzero"/></g><path fill="#006663" d="M 374.769531 168.855469 C 374.75 168.234375 374.988281 167.523438 374.378906 167.007812 C 367.636719 242.332031 318.476562 308.929688 254.113281 346.429688 C 323.550781 320.902344 375.695312 250.761719 374.902344 175.945312 C 374.867188 173.578125 374.851562 171.21875 374.769531 168.855469 Z M 374.769531 168.855469 " fill-opacity="1" fill-rule="nonzero"/></svg>